REM DIRINDEX 1\2,1\3
REM DIRNAME cjc039,folder01,folder02
TITLE ""
FILE "0121-0160.mp3" MP3
  TRACK 01 AUDIO
    TITLE "0:"
    INDEX 01 00:00:00
  TRACK 02 AUDIO
    TITLE "2:cjc039_0121"
    INDEX 01 00:00:23
  TRACK 03 AUDIO
    TITLE "0:"
    INDEX 01 00:01:62
  TRACK 04 AUDIO
    TITLE "2:cjc039_0122"
    INDEX 01 00:02:36
  TRACK 05 AUDIO
    TITLE "0:"
    INDEX 01 00:03:70
  TRACK 06 AUDIO
    TITLE "2:cjc039_0123"
    INDEX 01 00:04:42
  TRACK 07 AUDIO
    TITLE "0:"
    INDEX 01 00:06:02
  TRACK 08 AUDIO
    TITLE "2:cjc039_0124"
    INDEX 01 00:06:51
  TRACK 09 AUDIO
    TITLE "0:"
    INDEX 01 00:07:74
  TRACK 10 AUDIO
    TITLE "2:cjc039_0125"
    INDEX 01 00:08:54
  TRACK 11 AUDIO
    TITLE "0:"
    INDEX 01 00:10:06
  TRACK 12 AUDIO
    TITLE "2:cjc039_0126"
    INDEX 01 00:10:59
  TRACK 13 AUDIO
    TITLE "0:"
    INDEX 01 00:12:24
  TRACK 14 AUDIO
    TITLE "2:cjc039_0127"
    INDEX 01 00:12:71
  TRACK 15 AUDIO
    TITLE "0:"
    INDEX 01 00:14:17
  TRACK 16 AUDIO
    TITLE "2:cjc039_0128"
    INDEX 01 00:14:66
  TRACK 17 AUDIO
    TITLE "0:"
    INDEX 01 00:16:08
  TRACK 18 AUDIO
    TITLE "2:cjc039_0129"
    INDEX 01 00:16:57
  TRACK 19 AUDIO
    TITLE "0:"
    INDEX 01 00:18:33
  TRACK 20 AUDIO
    TITLE "2:cjc039_0130"
    INDEX 01 00:19:05
  TRACK 21 AUDIO
    TITLE "0:"
    INDEX 01 00:20:26
  TRACK 22 AUDIO
    TITLE "2:cjc039_0131"
    INDEX 01 00:20:71
  TRACK 23 AUDIO
    TITLE "0:"
    INDEX 01 00:22:32
  TRACK 24 AUDIO
    TITLE "2:cjc039_0132"
    INDEX 01 00:23:06
  TRACK 25 AUDIO
    TITLE "0:"
    INDEX 01 00:24:25
  TRACK 26 AUDIO
    TITLE "2:cjc039_0133"
    INDEX 01 00:25:03
  TRACK 27 AUDIO
    TITLE "0:"
    INDEX 01 00:26:50
  TRACK 28 AUDIO
    TITLE "2:cjc039_0134"
    INDEX 01 00:27:28
  TRACK 29 AUDIO
    TITLE "0:"
    INDEX 01 00:28:51
  TRACK 30 AUDIO
    TITLE "2:cjc039_0135"
    INDEX 01 00:29:21
  TRACK 31 AUDIO
    TITLE "0:"
    INDEX 01 00:30:65
  TRACK 32 AUDIO
    TITLE "2:cjc039_0136"
    INDEX 01 00:31:45
  TRACK 33 AUDIO
    TITLE "0:"
    INDEX 01 00:33:03
  TRACK 34 AUDIO
    TITLE "2:cjc039_0137"
    INDEX 01 00:33:54
  TRACK 35 AUDIO
    TITLE "0:"
    INDEX 01 00:35:17
  TRACK 36 AUDIO
    TITLE "2:cjc039_0138"
    INDEX 01 00:35:74
  TRACK 37 AUDIO
    TITLE "0:"
    INDEX 01 00:37:20
  TRACK 38 AUDIO
    TITLE "2:cjc039_0139"
    INDEX 01 00:37:67
  TRACK 39 AUDIO
    TITLE "0:"
    INDEX 01 00:39:15
  TRACK 40 AUDIO
    TITLE "2:cjc039_0140"
    INDEX 01 00:39:64
  TRACK 41 AUDIO
    TITLE "0:"
    INDEX 01 00:41:44
  TRACK 42 AUDIO
    TITLE "2:cjc039_0141"
    INDEX 01 00:42:21
  TRACK 43 AUDIO
    TITLE "0:"
    INDEX 01 00:43:44
  TRACK 44 AUDIO
    TITLE "2:cjc039_0142"
    INDEX 01 00:44:26
  TRACK 45 AUDIO
    TITLE "0:"
    INDEX 01 00:45:41
  TRACK 46 AUDIO
    TITLE "2:cjc039_0143"
    INDEX 01 00:46:21
  TRACK 47 AUDIO
    TITLE "0:"
    INDEX 01 00:47:62
  TRACK 48 AUDIO
    TITLE "2:cjc039_0144"
    INDEX 01 00:48:40
  TRACK 49 AUDIO
    TITLE "0:"
    INDEX 01 00:49:74
  TRACK 50 AUDIO
    TITLE "2:cjc039_0145"
    INDEX 01 00:50:56
  TRACK 51 AUDIO
    TITLE "0:"
    INDEX 01 00:52:20
  TRACK 52 AUDIO
    TITLE "2:cjc039_0146"
    INDEX 01 00:52:69
  TRACK 53 AUDIO
    TITLE "0:"
    INDEX 01 00:54:11
  TRACK 54 AUDIO
    TITLE "2:cjc039_0147"
    INDEX 01 00:54:62
  TRACK 55 AUDIO
    TITLE "0:"
    INDEX 01 00:56:14
  TRACK 56 AUDIO
    TITLE "2:cjc039_0148"
    INDEX 01 00:56:67
  TRACK 57 AUDIO
    TITLE "0:"
    INDEX 01 00:58:15
  TRACK 58 AUDIO
    TITLE "2:cjc039_0149"
    INDEX 01 00:58:69
  TRACK 59 AUDIO
    TITLE "0:"
    INDEX 01 01:00:23
  TRACK 60 AUDIO
    TITLE "2:cjc039_0150"
    INDEX 01 01:00:74
  TRACK 61 AUDIO
    TITLE "0:"
    INDEX 01 01:02:10
  TRACK 62 AUDIO
    TITLE "2:cjc039_0151"
    INDEX 01 01:02:65
  TRACK 63 AUDIO
    TITLE "0:"
    INDEX 01 01:04:11
  TRACK 64 AUDIO
    TITLE "2:cjc039_0152"
    INDEX 01 01:04:66
  TRACK 65 AUDIO
    TITLE "0:"
    INDEX 01 01:06:18
  TRACK 66 AUDIO
    TITLE "2:cjc039_0153"
    INDEX 01 01:06:67
  TRACK 67 AUDIO
    TITLE "0:"
    INDEX 01 01:08:21
  TRACK 68 AUDIO
    TITLE "2:cjc039_0154"
    INDEX 01 01:08:62
  TRACK 69 AUDIO
    TITLE "0:"
    INDEX 01 01:10:14
  TRACK 70 AUDIO
    TITLE "2:cjc039_0155"
    INDEX 01 01:10:67
  TRACK 71 AUDIO
    TITLE "0:"
    INDEX 01 01:12:23
  TRACK 72 AUDIO
    TITLE "2:cjc039_0156"
    INDEX 01 01:12:71
  TRACK 73 AUDIO
    TITLE "0:"
    INDEX 01 01:14:25
  TRACK 74 AUDIO
    TITLE "2:cjc039_0157"
    INDEX 01 01:14:72
  TRACK 75 AUDIO
    TITLE "0:"
    INDEX 01 01:16:30
  TRACK 76 AUDIO
    TITLE "2:cjc039_0158"
    INDEX 01 01:17:04
  TRACK 77 AUDIO
    TITLE "0:"
    INDEX 01 01:18:47
  TRACK 78 AUDIO
    TITLE "2:cjc039_0159"
    INDEX 01 01:19:21
  TRACK 79 AUDIO
    TITLE "0:"
    INDEX 01 01:20:69
  TRACK 80 AUDIO
    TITLE "2:cjc039_0160"
    INDEX 01 01:21:43
  TRACK 81 AUDIO
    TITLE "0:"
    INDEX 01 01:22:74
